<svg width="20" height="20" viewBox="0 0 20 20" fill="none" xmlns="http://www.w3.org/2000/svg">
<path d="M0.730285 0.730285C1.1605 0.300603 1.74368 0.0592544 2.35172 0.0592544C2.95976 0.0592544 3.54294 0.300603 3.97315 0.730285L10 6.75713L16.0268 0.730285C16.2369 0.504854 16.4902 0.324041 16.7717 0.198633C17.0531 0.0732262 17.357 0.00579282 17.665 0.000357082C17.9731 -0.00507866 18.2791 0.0515947 18.5648 0.166995C18.8505 0.282395 19.1101 0.454161 19.328 0.672041C19.5458 0.889922 19.7176 1.14945 19.833 1.43516C19.9484 1.72086 20.0051 2.02688 19.9996 2.33496C19.9942 2.64304 19.9268 2.94687 19.8014 3.22833C19.676 3.50978 19.4952 3.7631 19.2697 3.97315L13.2429 10L19.2697 16.0268C19.4952 16.2369 19.676 16.4902 19.8014 16.7717C19.9268 17.0531 19.9942 17.357 19.9996 17.665C20.0051 17.9731 19.9484 18.2791 19.833 18.5648C19.7176 18.8505 19.5458 19.1101 19.328 19.328C19.1101 19.5458 18.8505 19.7176 18.5648 19.833C18.2791 19.9484 17.9731 20.0051 17.665 19.9996C17.357 19.9942 17.0531 19.9268 16.7717 19.8014C16.4902 19.676 16.2369 19.4952 16.0268 19.2697L10 13.2429L3.97315 19.2697C3.7631 19.4952 3.50978 19.676 3.22833 19.8014C2.94687 19.9268 2.64304 19.9942 2.33496 19.9996C2.02688 20.0051 1.72086 19.9484 1.43516 19.833C1.14945 19.7176 0.889922 19.5458 0.672041 19.328C0.454161 19.1101 0.282395 18.8505 0.166995 18.5648C0.0515947 18.2791 -0.00507866 17.9731 0.000357082 17.665C0.00579282 17.357 0.0732262 17.0531 0.198633 16.7717C0.324041 16.4902 0.504854 16.2369 0.730285 16.0268L6.75713 10L0.730285 3.97315C0.300603 3.54294 0.0592544 2.95976 0.0592544 2.35172C0.0592544 1.74368 0.300603 1.1605 0.730285 0.730285Z" fill="white"/>
</svg>
