<svg width="17" height="17" viewBox="0 0 17 17" fill="none" xmlns="http://www.w3.org/2000/svg">
<path fill-rule="evenodd" clip-rule="evenodd" d="M11.817 5.15156C11.817 6.83316 10.3921 8.30313 8.5005 8.30313C6.60893 8.30313 5.18396 6.83316 5.18396 5.15156C5.18396 3.46996 6.60893 2 8.5005 2C10.3921 2 11.817 3.46996 11.817 5.15156ZM13.817 5.15156C13.817 7.99669 11.4368 10.3031 8.5005 10.3031C5.56426 10.3031 3.18396 7.99669 3.18396 5.15156C3.18396 2.30643 5.56426 0 8.5005 0C11.4368 0 13.817 2.30643 13.817 5.15156ZM3.22602 10.5903C3.36298 10.4883 3.52692 10.4259 3.69754 10.4192C4.26385 10.3968 4.54462 10.5232 4.76102 10.7652C5.15591 11.2067 4.90136 11.9296 4.43259 12.2917C3.53663 12.9838 2.84404 13.8981 2.44606 14.9394H14.5539C14.156 13.8984 13.4637 12.9843 12.568 12.2922C12.0992 11.93 11.8448 11.2069 12.2398 10.7653C12.4562 10.5233 12.7369 10.3969 13.3032 10.4195C13.4737 10.4263 13.6375 10.4887 13.7744 10.5906C15.507 11.8808 16.7032 13.7921 16.9923 15.9719C17.0672 16.5363 16.5839 17 15.9967 17H1.00331C0.416063 17 -0.0671788 16.5363 0.00767206 15.9719C0.296795 13.7919 1.49321 11.8805 3.22602 10.5903Z" fill="#F2F2F2"/>
</svg>
